<svg aria-hidden="true" style="position: absolute; width: 0; height: 0; overflow: hidden;" version="1.1" xmlns="http://www.w3.org/2000/svg" xmlns:xlink="http://www.w3.org/1999/xlink">
<defs>
<symbol id="arrowhead" viewBox="0 0 32 32">
<path d="M24.464 17.584l-13.759 13.759c-0.875 0.876-2.294 0.876-3.169 0s-0.875-2.294 0-3.169l12.175-12.175-12.175-12.174c-0.875-0.875-0.875-2.294 0-3.169s2.294-0.875 3.169 0l13.759 13.759c0.437 0.438 0.656 1.011 0.656 1.584s-0.219 1.147-0.656 1.584z"></path>
</symbol>
<symbol id="burger" viewBox="0 0 32 32">
<path d="M0 5v2h32v-2h-32zM0 17h32v-2h-32v2zM0 27h32v-2h-32v2z"></path>
</symbol>
<symbol id="cross" viewBox="0 0 32 32">
<path d="M32 1.883l-1.855-1.851-14.145 14.118-14.145-14.118-1.855 1.851 14.145 14.118-14.145 14.117 1.855 1.851 14.145-14.117 14.145 14.117 1.855-1.851-14.146-14.117z"></path>
</symbol>
<symbol id="facebook" viewBox="0 0 32 32">
<path d="M22.266 15.97h-4.176v15.39h-6.328v-15.392h-3.008v-5.408h3.008v-3.498c0-2.504 1.184-6.422 6.384-6.422l4.688 0.019v5.25h-3.402c-0.557 0-1.342 0.282-1.342 1.475v3.184h4.73l-0.554 5.4z"></path>
</symbol>
<symbol id="github" viewBox="0 0 32 32">
<path d="M16 0.941c-8.272 0-15.059 6.789-15.059 15.059 0 7.059 4.954 13.47 11.53 15.059v-4.982c-0.651 0.144-1.251 0.147-1.915-0.048-0.89-0.264-1.613-0.856-2.149-1.76-0.342-0.576-0.949-1.203-1.581-1.157l-0.155-1.758c1.368-0.117 2.55 0.834 3.253 2.014 0.312 0.525 0.672 0.832 1.133 0.968 0.445 0.131 0.923 0.069 1.482-0.128 0.139-1.117 0.651-1.536 1.037-2.123-3.922-0.586-5.485-2.667-6.106-4.309-0.822-2.181-0.381-4.906 1.072-6.627 0.029-0.032 0.080-0.122 0.061-0.182-0.667-2.014 0.144-3.68 0.176-3.856 0.768 0.227 0.893-0.229 3.341 1.258l0.422 0.254c0.176 0.106 0.122 0.045 0.299 0.032 0.943-0.266 2.029-0.428 3.15-0.445l0.010-0c1.147 0.018 2.247 0.183 3.294 0.478l-0.090-0.022 0.138 0.014c-0.013-0.002 0.037-0.010 0.12-0.059 3.056-1.851 2.947-1.246 3.766-1.512 0.030 0.176 0.832 1.869 0.171 3.856-0.088 0.275 2.651 2.784 1.133 6.811-0.621 1.643-2.184 3.723-6.106 4.309 0.502 0.768 1.107 1.174 1.104 2.755v6.219c6.576-1.589 11.53-8 11.53-15.059 0-8.272-6.787-15.059-15.059-15.059z"></path>
</symbol>
<symbol id="home" viewBox="0 0 35 32">
<path fill="#d31342" style="fill: var(--color2, #d31342)" d="M32.64 15.401c0.599-0.65 0.541-1.646-0.129-2.225l-14.772-12.75c-0.671-0.578-1.745-0.566-2.402 0.027l-14.822 13.403c-0.656 0.594-0.689 1.589-0.071 2.222l0.372 0.382c0.617 0.633 1.613 0.708 2.224 0.168l1.108-0.979v14.326c0 0.879 0.722 1.591 1.612 1.591h5.778c0.89 0 1.612-0.712 1.612-1.591v-10.023h7.37v10.023c-0.013 0.878 0.624 1.59 1.515 1.59h6.123c0.89 0 1.613-0.711 1.613-1.59v-14.124c0 0 0.306 0.264 0.683 0.592s1.168 0.065 1.767-0.586l0.42-0.455z"></path>
</symbol>
<symbol id="quotes" viewBox="0 0 43 32">
<path fill="#e1e1e1" style="fill: var(--color3, #e1e1e1)" d="M32.014 0c1.929 0 3.75 0.52 5.464 1.561s3.107 2.537 4.179 4.488c1.029 1.951 1.543 4.249 1.543 6.894s-0.643 5.225-1.929 7.74c-0.429 0.911-1.2 2.081-2.314 3.512-1.157 1.431-2.229 2.667-3.214 3.707l-4.050 4.098-2.893-4.813c2.014-1.257 3.793-2.818 5.336-4.683 1.543-1.821 2.314-3.491 2.314-5.008 0-0.78-0.171-1.409-0.514-1.886-1.5 1.084-3.171 1.626-5.014 1.626-1.329 0-2.593-0.412-3.793-1.236-1.243-0.78-2.229-1.821-2.957-3.122-0.771-1.258-1.157-2.558-1.157-3.902 0-1.518 0.45-2.97 1.35-4.358 0.857-1.388 1.993-2.515 3.407-3.382 1.371-0.824 2.786-1.236 4.243-1.236zM8.936 0c1.929 0 3.75 0.52 5.464 1.561s3.107 2.537 4.179 4.488c1.029 1.951 1.543 4.249 1.543 6.894 0 1.864-0.236 3.534-0.707 5.008-0.471 1.518-1.286 3.1-2.443 4.748-1.114 1.561-2.164 2.862-3.15 3.902-0.986 1.084-2.7 2.884-5.143 5.398l-2.893-4.813c2.014-1.257 3.793-2.818 5.336-4.683 1.543-1.821 2.314-3.491 2.314-5.008 0-0.78-0.171-1.409-0.514-1.886-1.5 1.084-3.171 1.626-5.014 1.626-1.329 0-2.593-0.412-3.793-1.236-1.243-0.78-2.229-1.821-2.957-3.122-0.771-1.258-1.157-2.558-1.157-3.902 0-1.518 0.429-2.97 1.286-4.358s1.993-2.515 3.407-3.382c1.371-0.824 2.786-1.236 4.243-1.236z"></path>
</symbol>
<symbol id="telegram" viewBox="0 0 32 32">
<path d="M12.965 19.8l-0.509 6.672c0.726 0 1.042-0.293 1.419-0.642l3.408-3.040 7.064 4.827c1.296 0.672 2.208 0.318 2.557-1.112l4.637-20.277h0.002c0.411-1.789-0.693-2.486-1.955-2.048l-27.251 9.738c-1.859 0.672-1.832 1.642-0.317 2.080l6.968 2.022 16.184-9.451c0.762-0.47 1.453-0.211 0.883 0.261l-13.090 10.97z"></path>
</symbol>
<symbol id="arrow" viewBox="0 0 32 32">
<path d="M19.414 27.414l10-10c0.781-0.781 0.781-2.047 0-2.828l-10-10c-0.781-0.781-2.047-0.781-2.828 0s-0.781 2.047 0 2.828l6.586 6.586h-19.172c-1.105 0-2 0.895-2 2s0.895 2 2 2h19.172l-6.586 6.586c-0.39 0.39-0.586 0.902-0.586 1.414s0.195 1.024 0.586 1.414c0.781 0.781 2.047 0.781 2.828 0z"></path>
</symbol>
</defs>
</svg>
